# xmcd
#
# Track frame offsets:
# 150
# 11827
# 28380
# 37757
# 50612
# 60767
# 77190
# 89485
# 106357
# 116202
# 128550
# 140102
# 154385
# 167562
# 182252
# 196580
# 212420
# 228840
# 242617
# 255467
# 267750
# 281490
# 295102
# 306832
# 323185
# 334210
#
# Disc length: 4680 seconds
#
#
# Revision: 0
# Processed by: cddbd v1.5.2PL0 Copyright (c) Steve Scherf et al.
# Submitted via: FreeRIP 2.51 
#
DISCID=6712461a
DTITLE=Doris Day - Daydreaming: The Very Best Of Doris Day
DYEAR=1997
DGENRE=Soul
TTITLE0=Move Over Darling
TTITLE1=Secret Love
TTITLE2=Whatever Will Be, Will Be (Que Sera, Sera)
TTITLE3=Lullaby Of Broadway
TTITLE4=Love Me Or Leave Me
TTITLE5=It's Magic
TTITLE6=Everybody Loves A Lover
TTITLE7=Dream A Little Dream Of Me
TTITLE8=Pillow Talk
TTITLE9=Cheek To Cheek
TTITLE10=Fly Me To The Moon
TTITLE11=Close Your Eyes (with the André Previn Trio)
TTITLE12=Quiet Night Of Quiet Stars
TTITLE13=Night And Day
TTITLE14=Let's Face The Music And Dance
TTITLE15=Pennies From Heaven
TTITLE16=Over The Rainbow
TTITLE17=I'll Never Stop Loving You
TTITLE18=If I Give My Heart To You
TTITLE19=Bewitched
TTITLE20=A Very Precious Love
TTITLE21=The Black Hills Of Dakota
TTITLE22=Teacher's Pet
TTITLE23=Makin' Whoopee
TTITLE24=Ready, Willing And Hope
TTITLE25=Sentimental Journey
EXTD=
EXTT0=
EXTT1=
EXTT2=
EXTT3=
EXTT4=
EXTT5=
EXTT6=
EXTT7=
EXTT8=
EXTT9=
EXTT10=
EXTT11=
EXTT12=
EXTT13=
EXTT14=
EXTT15=
EXTT16=
EXTT17=
EXTT18=
EXTT19=
EXTT20=
EXTT21=
EXTT22=
EXTT23=
EXTT24=
EXTT25=
PLAYORDER=
